<?xml version="1.0" encoding="utf-8"?>
<!-- Generator: Adobe Illustrator 19.0.0, SVG Export Plug-In . SVG Version: 6.00 Build 0)  -->
<svg version="1.1" id="Layer_1" xmlns="http://www.w3.org/2000/svg" xmlns:xlink="http://www.w3.org/1999/xlink" x="0px" y="0px"
     viewBox="0 0 10 257" style="enable-background:new 0 0 10 257;" xml:space="preserve">
<style type="text/css">
	.st0{fill:none;}
	.st1{fill:none;stroke:#414042;stroke-width:4;stroke-miterlimit:10;}
</style>
<path id="XMLID_68_" class="st0" d="M-231.7,288.2h-64c-6.6,0-12-5.4-12-12v0c0-6.6,5.4-12,12-12h64c6.6,0,12,5.4,12,12v0
	C-219.7,282.8-225.1,288.2-231.7,288.2z"/>
<path id="XMLID_67_" class="st1" d="M-205.7,82.7H-287c-6.6,0-12-5.4-12-12V21.3c0-6.6,5.4-12,12-12h81.3c6.6,0,12,5.4,12,12v49.3
	C-193.7,77.3-199.1,82.7-205.7,82.7z"/>
<path id="XMLID_69_" class="st1" d="M-269.6,37.6h-13.8c-3.9,0-7-3.2-7-7v-7.3c0-3.9,3.1-7,7-7h13.8c3.9,0,7,3.1,7,7v7.3
	C-262.6,34.5-265.7,37.6-269.6,37.6z"/>
<line id="XMLID_84_" class="st1" x1="-253" y1="21.5" x2="-216.5" y2="21.5"/>
<line id="XMLID_85_" class="st1" x1="-253" y1="31.8" x2="-205.5" y2="31.8"/>
<path id="XMLID_86_" class="st1" d="M-208.3,74.6h-76.4c-3.9,0-7-3.1-7-7V52c0-3.8,3.1-7,7-7h76.4c3.9,0,7,3.2,7,7v15.6
	C-201.3,71.5-204.4,74.6-208.3,74.6z"/>
</svg>
